<svg width="1200" height="800" xmlns="http://www.w3.org/2000/svg">
  <defs>
    <style>
      .title { font: bold 20px sans-serif; text-anchor: middle; }
      .subtitle { font: bold 16px sans-serif; text-anchor: middle; }
      .label { font: 12px sans-serif; text-anchor: middle; }
      .small-label { font: 10px sans-serif; text-anchor: middle; }
      .block { fill: #e1f5fe; stroke: #0277bd; stroke-width: 2; }
      .attention { fill: #fff3e0; stroke: #ef6c00; stroke-width: 2; }
      .bea-block { fill: #e8f5e8; stroke: #2e7d32; stroke-width: 2; }
      .arrow { stroke: #333; stroke-width: 2; marker-end: url(#arrowhead); }
      .data-flow { stroke: #666; stroke-width: 1.5; stroke-dasharray: 5,5; }
    </style>
    <marker id="arrowhead" markerWidth="10" markerHeight="7" refX="9" refY="3.5" orient="auto">
      <polygon points="0 0, 10 3.5, 0 7" fill="#333" />
    </marker>
  </defs>
  
  <!-- Title -->
  <text x="600" y="30" class="title">UNet Architecture Comparison: Original UNetV2 vs BEA UNet</text>
  
  <!-- Original UNetV2 -->
  <g id="original-unet">
    <text x="300" y="70" class="subtitle">Original UNetV2</text>
    
    <!-- Input -->
    <rect x="250" y="90" width="100" height="30" class="block"/>
    <text x="300" y="110" class="label">Input (x_t)</text>
    
    <!-- Encoder -->
    <rect x="250" y="140" width="100" height="40" class="block"/>
    <text x="300" y="165" class="label">Encoder Blocks</text>
    
    <rect x="250" y="200" width="100" height="30" class="attention"/>
    <text x="300" y="220" class="label">Attention</text>
    
    <!-- Middle -->
    <rect x="250" y="250" width="100" height="40" class="block"/>
    <text x="300" y="275" class="label">Middle Block</text>
    
    <!-- Decoder -->
    <rect x="250" y="320" width="100" height="40" class="block"/>
    <text x="300" y="345" class="label">Decoder Blocks</text>
    
    <rect x="250" y="380" width="100" height="30" class="attention"/>
    <text x="300" y="400" class="label">Attention</text>
    
    <!-- Output -->
    <rect x="250" y="430" width="100" height="30" class="block"/>
    <text x="300" y="450" class="label">Output</text>
    
    <!-- Arrows -->
    <line x1="300" y1="120" x2="300" y2="140" class="arrow"/>
    <line x1="300" y1="180" x2="300" y2="200" class="arrow"/>
    <line x1="300" y1="230" x2="300" y2="250" class="arrow"/>
    <line x1="300" y1="290" x2="300" y2="320" class="arrow"/>
    <line x1="300" y1="360" x2="300" y2="380" class="arrow"/>
    <line x1="300" y1="410" x2="300" y2="430" class="arrow"/>
  </g>
  
  <!-- BEA UNet -->
  <g id="bea-unet">
    <text x="700" y="70" class="subtitle">BEA UNet (Boundary-Enhanced Attention)</text>
    
    <!-- Input -->
    <rect x="650" y="90" width="100" height="30" class="block"/>
    <text x="700" y="110" class="label">Input (x_t)</text>
    
    <!-- Encoder -->
    <rect x="650" y="140" width="100" height="40" class="block"/>
    <text x="700" y="165" class="label">Encoder Blocks</text>
    
    <rect x="650" y="200" width="100" height="30" class="attention"/>
    <text x="700" y="220" class="label">Attention</text>
    
    <!-- Middle -->
    <rect x="650" y="250" width="100" height="40" class="block"/>
    <text x="700" y="275" class="label">Middle Block</text>
    
    <!-- Decoder -->
    <rect x="650" y="320" width="100" height="40" class="block"/>
    <text x="700" y="345" class="label">Decoder Blocks</text>
    
    <rect x="650" y="380" width="100" height="30" class="attention"/>
    <text x="700" y="400" class="label">Attention</text>
    
    <!-- BEA Module (NEW) -->
    <rect x="620" y="430" width="160" height="60" class="bea-block"/>
    <text x="700" y="450" class="label">Boundary-Aware Attention</text>
    <text x="700" y="470" class="small-label">(BEA Module)</text>
    
    <!-- Output -->
    <rect x="650" y="510" width="100" height="30" class="block"/>
    <text x="700" y="530" class="label">Output</text>
    
    <!-- Arrows -->
    <line x1="700" y1="120" x2="700" y2="140" class="arrow"/>
    <line x1="700" y1="180" x2="700" y2="200" class="arrow"/>
    <line x1="700" y1="230" x2="700" y2="250" class="arrow"/>
    <line x1="700" y1="290" x2="700" y2="320" class="arrow"/>
    <line x1="700" y1="360" x2="700" y2="380" class="arrow"/>
    <line x1="700" y1="410" x2="700" y2="430" class="arrow"/>
    <line x1="700" y1="490" x2="700" y2="510" class="arrow"/>
  </g>
  
  <!-- BEA Module Detail -->
  <g id="bea-detail">
    <text x="1000" y="70" class="subtitle">BEA Module Detail</text>
    
    <!-- Input x0 -->
    <rect x="850" y="100" width="80" height="25" class="block"/>
    <text x="890" y="118" class="small-label">Input x_0</text>
    
    <!-- Sobel Operator -->
    <rect x="850" y="140" width="80" height="30" class="bea-block"/>
    <text x="890" y="160" class="small-label">Sobel Operator</text>
    
    <!-- Gradient Map -->
    <rect x="850" y="185" width="80" height="25" class="block"/>
    <text x="890" y="203" class="small-label">Gradient Map G</text>
    
    <!-- Resize -->
    <rect x="850" y="225" width="80" height="25" class="block"/>
    <text x="890" y="243" class="small-label">Resize to F</text>
    
    <!-- 1x1 Conv -->
    <rect x="850" y="265" width="80" height="30" class="bea-block"/>
    <text x="890" y="285" class="small-label">1×1 Conv</text>
    
    <!-- Attention Weights -->
    <rect x="850" y="310" width="80" height="25" class="block"/>
    <text x="890" y="328" class="small-label">Weights A_G</text>
    
    <!-- Feature Map F -->
    <rect x="950" y="310" width="80" height="25" class="block"/>
    <text x="990" y="328" class="small-label">Feature Map F</text>
    
    <!-- Element-wise Multiplication -->
    <circle cx="920" cy="360" r="15" class="bea-block"/>
    <text x="920" y="365" class="small-label">⊙</text>
    
    <!-- Enhanced Feature -->
    <rect x="880" y="390" width="80" height="25" class="block"/>
    <text x="920" y="408" class="small-label">Enhanced F'</text>
    
    <!-- Arrows for BEA detail -->
    <line x1="890" y1="125" x2="890" y2="140" class="arrow"/>
    <line x1="890" y1="170" x2="890" y2="185" class="arrow"/>
    <line x1="890" y1="210" x2="890" y2="225" class="arrow"/>
    <line x1="890" y1="250" x2="890" y2="265" class="arrow"/>
    <line x1="890" y1="295" x2="890" y2="310" class="arrow"/>
    <line x1="890" y1="335" x2="905" y2="350" class="arrow"/>
    <line x1="990" y1="335" x2="935" y2="350" class="arrow"/>
    <line x1="920" y1="375" x2="920" y2="390" class="arrow"/>
    
    <!-- Formula -->
    <text x="920" y="440" class="label">F' = A_G ⊙ F</text>
  </g>
  
  <!-- Key Differences -->
  <g id="differences">
    <text x="600" y="580" class="subtitle">Key Differences</text>
    
    <text x="100" y="610" class="label">Original UNetV2:</text>
    <text x="100" y="630" class="small-label">• Standard attention mechanisms</text>
    <text x="100" y="650" class="small-label">• No boundary-specific processing</text>
    <text x="100" y="670" class="small-label">• Direct feature processing</text>
    
    <text x="600" y="610" class="label">BEA UNet:</text>
    <text x="600" y="630" class="small-label">• Boundary-Aware Attention module</text>
    <text x="600" y="650" class="small-label">• Sobel operator for gradient detection</text>
    <text x="600" y="670" class="small-label">• Channel-wise attention weighting</text>
    <text x="600" y="690" class="small-label">• Enhanced boundary sensitivity</text>
    
    <!-- Highlight the difference -->
    <rect x="615" y="425" width="170" height="70" fill="none" stroke="#d32f2f" stroke-width="3" stroke-dasharray="10,5"/>
    <text x="700" y="420" class="small-label" fill="#d32f2f">NEW COMPONENT</text>
  </g>
  
  <!-- Legend -->
  <g id="legend">
    <text x="100" y="750" class="label">Legend:</text>
    <rect x="150" y="740" width="20" height="15" class="block"/>
    <text x="180" y="752" class="small-label">Standard Block</text>
    <rect x="280" y="740" width="20" height="15" class="attention"/>
    <text x="310" y="752" class="small-label">Attention Block</text>
    <rect x="420" y="740" width="20" height="15" class="bea-block"/>
    <text x="450" y="752" class="small-label">BEA Component</text>
  </g>
</svg>